# xmcd
#
# Track frame offsets: 
#        150
#        16555
#        33816
#        51554
#        71858
#        82845
#        102589
#        121671
#        135980
#        151244
#        167846
#        188683
#        209410
#
# Disc length: 3175 seconds
#
# Revision: 0
# Processed by: cddbd v1.5.2PL0 Copyright (c) Steve Scherf et al.
# Submitted via: ExactAudioCopy v0.99pb4
#
DISCID=a10c650d
DTITLE=Hard Luck Blues Band - Unfinished Business
DYEAR=1900
DGENRE=Blues
TTITLE0=Unfinished business
TTITLE1=I'm a man
TTITLE2=Written all over me
TTITLE3=Hard Luck
TTITLE4=That's It!
TTITLE5=Blues of the night
TTITLE6=Sorry Day
TTITLE7=B-Bone Shuffle
TTITLE8=Daddy's gonna take you home
TTITLE9=That's what it's all about
TTITLE10=Don't you worry
TTITLE11=Once again
TTITLE12=No time for talking
EXTD=
EXTT0=
EXTT1=
EXTT2=
EXTT3=
EXTT4=
EXTT5=
EXTT6=
EXTT7=
EXTT8=
EXTT9=
EXTT10=
EXTT11=
EXTT12=
PLAYORDER=
